<mxfile host="app.diagrams.net" modified="2023-06-26T17:36:29.244Z" agent="Mozilla/5.0 (Windows NT 10.0; Win64; x64) AppleWebKit/537.36 (KHTML, like Gecko) Chrome/114.0.0.0 Safari/537.36" etag="7UOPjlPsh2Jexd3mIDbl" version="21.5.0" type="device">
  <diagram name="Page-1" id="Nsoj1PFsDEJktYrNdHxH">
    <mxGraphModel dx="-56" dy="1618" grid="1" gridSize="10" guides="1" tooltips="1" connect="1" arrows="1" fold="1" page="1" pageScale="1" pageWidth="850" pageHeight="1100" math="0" shadow="0">
      <root>
        <mxCell id="0" />
        <mxCell id="1" parent="0" />
        <mxCell id="B8T2Mf0T8lct4ZBuO3P_-1" value="&lt;b&gt;Google &lt;/b&gt;Cloud Platform" style="fillColor=none;strokeColor=none;shadow=0;fontSize=14;align=left;spacing=10;9E9E9E;verticalAlign=top;spacingTop=-4;fontStyle=0;spacingLeft=40;html=1;whiteSpace=wrap;dashed=1;gradientColor=none;" vertex="1" parent="1">
          <mxGeometry x="1371.54" y="-310" width="1510" height="900" as="geometry" />
        </mxCell>
        <mxCell id="B8T2Mf0T8lct4ZBuO3P_-7" value="" style="rounded=1;whiteSpace=wrap;html=1;dashed=1;fillColor=#bac8d3;strokeColor=#23445d;" vertex="1" parent="B8T2Mf0T8lct4ZBuO3P_-1">
          <mxGeometry x="35.80992526975371" y="70.3125" width="1038.4878328228576" height="646.875" as="geometry" />
        </mxCell>
        <mxCell id="B8T2Mf0T8lct4ZBuO3P_-2" value="" style="shape=mxgraph.gcp2.google_cloud_platform;fillColor=#F6F6F6;strokeColor=none;shadow=0;gradientColor=none;" vertex="1" parent="B8T2Mf0T8lct4ZBuO3P_-1">
          <mxGeometry width="23" height="20" relative="1" as="geometry">
            <mxPoint x="20" y="10" as="offset" />
          </mxGeometry>
        </mxCell>
        <mxCell id="B8T2Mf0T8lct4ZBuO3P_-3" value="" style="rounded=0;whiteSpace=wrap;html=1;fillColor=#fff2cc;strokeColor=#d6b656;" vertex="1" parent="B8T2Mf0T8lct4ZBuO3P_-1">
          <mxGeometry x="89.52481317438428" y="126.5625" width="931.0580570135965" height="224.99999999999997" as="geometry" />
        </mxCell>
        <mxCell id="B8T2Mf0T8lct4ZBuO3P_-4" value="" style="rounded=0;whiteSpace=wrap;html=1;fillColor=#fff2cc;strokeColor=#d6b656;" vertex="1" parent="B8T2Mf0T8lct4ZBuO3P_-1">
          <mxGeometry x="125.33473844413798" y="421.875" width="179.04962634876856" height="210.9375" as="geometry" />
        </mxCell>
        <mxCell id="B8T2Mf0T8lct4ZBuO3P_-5" value="" style="rounded=0;whiteSpace=wrap;html=1;fillColor=#fff2cc;strokeColor=#d6b656;" vertex="1" parent="B8T2Mf0T8lct4ZBuO3P_-1">
          <mxGeometry x="395.7005694789102" y="421.875" width="179.04962634876856" height="210.9375" as="geometry" />
        </mxCell>
        <mxCell id="B8T2Mf0T8lct4ZBuO3P_-6" value="" style="rounded=0;whiteSpace=wrap;html=1;fillColor=#fff2cc;strokeColor=#d6b656;" vertex="1" parent="B8T2Mf0T8lct4ZBuO3P_-1">
          <mxGeometry x="805.7233185694586" y="421.875" width="179.04962634876856" height="210.9375" as="geometry" />
        </mxCell>
        <mxCell id="B8T2Mf0T8lct4ZBuO3P_-8" value="VPC SC Service Perimeter" style="text;html=1;strokeColor=none;fillColor=none;align=center;verticalAlign=middle;whiteSpace=wrap;rounded=0;" vertex="1" parent="B8T2Mf0T8lct4ZBuO3P_-1">
          <mxGeometry x="125.33473844413798" y="660.9375" width="107.42977580926114" height="42.1875" as="geometry" />
        </mxCell>
        <mxCell id="B8T2Mf0T8lct4ZBuO3P_-9" value="Service Project 1" style="text;html=1;strokeColor=none;fillColor=none;align=center;verticalAlign=middle;whiteSpace=wrap;rounded=0;" vertex="1" parent="B8T2Mf0T8lct4ZBuO3P_-1">
          <mxGeometry x="139.65870855203949" y="421.875" width="69.82935427601974" height="42.1875" as="geometry" />
        </mxCell>
        <mxCell id="B8T2Mf0T8lct4ZBuO3P_-10" value="Service Project 2" style="text;html=1;strokeColor=none;fillColor=none;align=center;verticalAlign=middle;whiteSpace=wrap;rounded=0;" vertex="1" parent="B8T2Mf0T8lct4ZBuO3P_-1">
          <mxGeometry x="429.7182079889128" y="428.90625" width="69.82935427601974" height="42.1875" as="geometry" />
        </mxCell>
        <mxCell id="B8T2Mf0T8lct4ZBuO3P_-11" value="Service Project n" style="text;html=1;strokeColor=none;fillColor=none;align=center;verticalAlign=middle;whiteSpace=wrap;rounded=0;" vertex="1" parent="B8T2Mf0T8lct4ZBuO3P_-1">
          <mxGeometry x="805.7260043138537" y="428.90625" width="69.82935427601974" height="42.1875" as="geometry" />
        </mxCell>
        <mxCell id="B8T2Mf0T8lct4ZBuO3P_-12" value="&lt;b&gt;Google &lt;/b&gt;Cloud Platform" style="fillColor=#f5f5f5;strokeColor=#666666;shadow=0;fontSize=14;align=left;spacing=10;fontColor=#333333;9E9E9E;verticalAlign=top;spacingTop=-4;fontStyle=0;spacingLeft=40;html=1;whiteSpace=wrap;dashed=1;" vertex="1" parent="B8T2Mf0T8lct4ZBuO3P_-1">
          <mxGeometry x="-89.53" y="-348.98" width="1599.53" height="1188.98" as="geometry" />
        </mxCell>
        <mxCell id="B8T2Mf0T8lct4ZBuO3P_-13" value="" style="rounded=1;whiteSpace=wrap;html=1;dashed=1;fillColor=#dae8fc;strokeColor=#6c8ebf;" vertex="1" parent="B8T2Mf0T8lct4ZBuO3P_-12">
          <mxGeometry x="80" y="50" width="1480" height="1110" as="geometry" />
        </mxCell>
        <mxCell id="B8T2Mf0T8lct4ZBuO3P_-14" value="" style="shape=mxgraph.gcp2.google_cloud_platform;fillColor=#F6F6F6;strokeColor=none;shadow=0;gradientColor=none;" vertex="1" parent="B8T2Mf0T8lct4ZBuO3P_-12">
          <mxGeometry width="23" height="20" relative="1" as="geometry">
            <mxPoint x="20" y="10" as="offset" />
          </mxGeometry>
        </mxCell>
        <mxCell id="B8T2Mf0T8lct4ZBuO3P_-15" value="" style="rounded=0;whiteSpace=wrap;html=1;fillColor=#ffe6cc;strokeColor=#d79b00;" vertex="1" parent="B8T2Mf0T8lct4ZBuO3P_-12">
          <mxGeometry x="139.69149515774032" y="218.37194918367348" width="1061.411918279337" height="148.6225" as="geometry" />
        </mxCell>
        <mxCell id="B8T2Mf0T8lct4ZBuO3P_-16" value="" style="rounded=0;whiteSpace=wrap;html=1;fillColor=#fff2cc;strokeColor=#d6b656;" vertex="1" parent="B8T2Mf0T8lct4ZBuO3P_-12">
          <mxGeometry x="173.82416587315092" y="796.8308786055351" width="222.98499443370181" height="278.66718750000007" as="geometry" />
        </mxCell>
        <mxCell id="B8T2Mf0T8lct4ZBuO3P_-17" value="" style="rounded=0;whiteSpace=wrap;html=1;fillColor=#fff2cc;strokeColor=#d6b656;" vertex="1" parent="B8T2Mf0T8lct4ZBuO3P_-12">
          <mxGeometry x="462.58638888987826" y="796.8308786055351" width="222.98499443370181" height="278.66718750000007" as="geometry" />
        </mxCell>
        <mxCell id="B8T2Mf0T8lct4ZBuO3P_-18" value="" style="rounded=0;whiteSpace=wrap;html=1;fillColor=#fff2cc;strokeColor=#d6b656;" vertex="1" parent="B8T2Mf0T8lct4ZBuO3P_-12">
          <mxGeometry x="1003.4324749516583" y="796.8308786055351" width="222.98499443370181" height="278.66718750000007" as="geometry" />
        </mxCell>
        <mxCell id="B8T2Mf0T8lct4ZBuO3P_-19" value="&lt;b&gt;VPC Service Perimeter&lt;/b&gt;" style="text;html=1;strokeColor=none;fillColor=none;align=center;verticalAlign=middle;whiteSpace=wrap;rounded=0;" vertex="1" parent="B8T2Mf0T8lct4ZBuO3P_-12">
          <mxGeometry x="168.24533374826248" y="119.48115553741961" width="133.79099666022108" height="55.73343750000001" as="geometry" />
        </mxCell>
        <mxCell id="B8T2Mf0T8lct4ZBuO3P_-20" value="&lt;b&gt;Service Project 1&lt;/b&gt;" style="text;html=1;strokeColor=none;fillColor=none;align=center;verticalAlign=middle;whiteSpace=wrap;rounded=0;" vertex="1" parent="B8T2Mf0T8lct4ZBuO3P_-12">
          <mxGeometry x="191.6629654278471" y="796.8308786055351" width="86.96414782914371" height="55.73343750000001" as="geometry" />
        </mxCell>
        <mxCell id="B8T2Mf0T8lct4ZBuO3P_-21" value="&lt;b&gt;Service Project 2&lt;/b&gt;" style="text;html=1;strokeColor=none;fillColor=none;align=center;verticalAlign=middle;whiteSpace=wrap;rounded=0;" vertex="1" parent="B8T2Mf0T8lct4ZBuO3P_-12">
          <mxGeometry x="462.58527396490615" y="796.8308786055351" width="86.96414782914371" height="55.73343750000001" as="geometry" />
        </mxCell>
        <mxCell id="B8T2Mf0T8lct4ZBuO3P_-22" value="&lt;b&gt;Service Project n&lt;/b&gt;" style="text;html=1;strokeColor=none;fillColor=none;align=center;verticalAlign=middle;whiteSpace=wrap;rounded=0;" vertex="1" parent="B8T2Mf0T8lct4ZBuO3P_-12">
          <mxGeometry x="1025.5186968875914" y="817.4208255883357" width="86.96414782914371" height="55.73343750000001" as="geometry" />
        </mxCell>
        <mxCell id="B8T2Mf0T8lct4ZBuO3P_-23" value="" style="rounded=0;whiteSpace=wrap;html=1;fillColor=#fff2cc;strokeColor=#d6b656;" vertex="1" parent="B8T2Mf0T8lct4ZBuO3P_-12">
          <mxGeometry x="737.9683973156115" y="796.8308786055351" width="222.98499443370181" height="278.66718750000007" as="geometry" />
        </mxCell>
        <mxCell id="B8T2Mf0T8lct4ZBuO3P_-24" value="&lt;b&gt;Service Project 3&lt;/b&gt;" style="text;html=1;strokeColor=none;fillColor=none;align=center;verticalAlign=middle;whiteSpace=wrap;rounded=0;" vertex="1" parent="B8T2Mf0T8lct4ZBuO3P_-12">
          <mxGeometry x="737.971742090528" y="806.1197848555349" width="86.96414782914371" height="55.73343750000001" as="geometry" />
        </mxCell>
        <mxCell id="B8T2Mf0T8lct4ZBuO3P_-26" value="&lt;b&gt;Host Project&amp;nbsp;&lt;/b&gt;" style="text;html=1;strokeColor=none;fillColor=none;align=center;verticalAlign=middle;whiteSpace=wrap;rounded=0;" vertex="1" parent="B8T2Mf0T8lct4ZBuO3P_-12">
          <mxGeometry x="156.08423702353386" y="264.8058645408164" width="86.96414782914371" height="55.73343750000001" as="geometry" />
        </mxCell>
        <mxCell id="B8T2Mf0T8lct4ZBuO3P_-32" value="" style="strokeColor=#dddddd;shadow=1;strokeWidth=1;rounded=1;absoluteArcSize=1;arcSize=2;" vertex="1" parent="B8T2Mf0T8lct4ZBuO3P_-12">
          <mxGeometry x="191.54701323074153" y="908.2977536055351" width="174.04424785539294" height="111.46687500000002" as="geometry" />
        </mxCell>
        <mxCell id="B8T2Mf0T8lct4ZBuO3P_-33" value="Compute&#xa;Engine" style="editableCssRules=.*;html=1;fontColor=#999999;shape=image;verticalLabelPosition=middle;labelBackgroundColor=#ffffff;verticalAlign=middle;labelPosition=right;align=left;spacingLeft=20;part=1;points=[];imageAspect=0;image=data:image/svg+xml,PHN2ZyB4bWxucz0iaHR0cDovL3d3dy53My5vcmcvMjAwMC9zdmciIHhtbG5zOnY9Imh0dHBzOi8vdmVjdGEuaW8vbmFubyIgd2lkdGg9IjIwIiBoZWlnaHQ9IjIwIiB2aWV3Qm94PSIwIDAgMjAgMjAiPiYjeGE7CTxzdHlsZSB0eXBlPSJ0ZXh0L2NzcyI+JiN4YTsJLnN0MHtmaWxsOiM0Mjg1ZjQ7fSYjeGE7CS5zdDF7ZmlsbDojNjY5ZGY2O30mI3hhOwkuc3Qye2ZpbGw6I2FlY2JmYTt9JiN4YTsJPC9zdHlsZT4mI3hhOwk8cGF0aCBjbGFzcz0ic3QyIiBkPSJNNyA3aDZ2Nkg3eiIvPiYjeGE7CTxwYXRoIGNsYXNzPSJzdDEiIGQ9Ik05IDBoMnY0SDl6TTUgMGgydjRINXptOCAwaDJ2NGgtMnoiLz4mI3hhOwk8cGF0aCBjbGFzcz0ic3QwIiBkPSJNOSAxNmgydjRIOXptLTQgMGgydjRINXptOCAwaDJ2NGgtMnptMy01VjloNHYyem0wIDR2LTJoNHYyem0wLThWNWg0djJ6Ii8+JiN4YTsJPHBhdGggY2xhc3M9InN0MSIgZD0iTTAgMTFWOWg0djJ6bTAgNHYtMmg0djJ6bTAtOFY1aDR2MnoiLz4mI3hhOwk8cGF0aCBjbGFzcz0ic3QyIiBkPSJNMyAzdjE0aDE0VjN6bTEyIDEySDVWNWgxMHoiLz4mI3hhOwk8cGF0aCBjbGFzcz0ic3QxIiBkPSJNMTAgMTBsLTMgM2g2eiIvPiYjeGE7CTxwYXRoIGNsYXNzPSJzdDAiIGQ9Ik0xMyA3bC0zIDMgMyAzeiIvPiYjeGE7PC9zdmc+;" vertex="1" parent="B8T2Mf0T8lct4ZBuO3P_-32">
          <mxGeometry width="30" height="30" relative="1" as="geometry">
            <mxPoint x="15" y="15" as="offset" />
          </mxGeometry>
        </mxCell>
        <mxCell id="B8T2Mf0T8lct4ZBuO3P_-35" value="" style="strokeColor=#dddddd;shadow=1;strokeWidth=1;rounded=1;absoluteArcSize=1;arcSize=2;" vertex="1" parent="B8T2Mf0T8lct4ZBuO3P_-12">
          <mxGeometry x="765.7154930253283" y="891.2373566469221" width="136.7360814923643" height="145.58938775510202" as="geometry" />
        </mxCell>
        <mxCell id="B8T2Mf0T8lct4ZBuO3P_-36" value="Cloud&#xa;SQL" style="editableCssRules=.*;html=1;fontColor=#999999;shape=image;verticalLabelPosition=middle;labelBackgroundColor=#ffffff;verticalAlign=middle;labelPosition=right;align=left;spacingLeft=20;part=1;points=[];imageAspect=0;image=data:image/svg+xml,PHN2ZyB4bWxucz0iaHR0cDovL3d3dy53My5vcmcvMjAwMC9zdmciIHhtbG5zOnY9Imh0dHBzOi8vdmVjdGEuaW8vbmFubyIgd2lkdGg9IjE0LjY1OTk5OTg0NzQxMjExIiBoZWlnaHQ9IjIwIiB2aWV3Qm94PSIwIDAgMTQuNjU5OTk5ODQ3NDEyMTEgMjAiPiYjeGE7CTxzdHlsZSB0eXBlPSJ0ZXh0L2NzcyI+JiN4YTsJLnN0MHtmaWxsOiM0Mjg1ZjQ7fSYjeGE7CS5zdDF7ZmlsbDojNjY5ZGY2O30mI3hhOwkuc3Qye2ZpbGw6I2FlY2JmYTt9JiN4YTsJPC9zdHlsZT4mI3hhOwk8c3R5bGU+JiN4YTsJCS5Ee2ZpbGwtcnVsZTpldmVub2RkfSYjeGE7CTwvc3R5bGU+JiN4YTsJPHBhdGggZD0iTTcuMzMgMTUuMzV2LTMuMDFMMCA4LjQ0djMuMDF6bTAgNC42NXYtMy4wMUwwIDEzLjA5djMuMDF6IiBjbGFzcz0ic3QyIEQiLz4mI3hhOwk8cGF0aCBkPSJNMTQuNjYgOC40NGwtNy4zMyAzLjl2My4wMWw3LjMzLTMuOXptMCA0LjY1bC03LjMzIDMuOVYyMGw3LjMzLTMuOXoiIGNsYXNzPSJzdDEgRCIvPiYjeGE7CTxwYXRoIGQ9Ik03LjMzIDB2My4wMWw3LjMzIDMuOVYzLjl6IiBjbGFzcz0ic3QwIEQiLz4mI3hhOwk8cGF0aCBkPSJNMCA2LjkxbDcuMzMtMy45VjBMMCAzLjl6IiBjbGFzcz0iRCBzdDEiLz4mI3hhOwk8cGF0aCBkPSJNNy4zMyAxMC43OVY3Ljc3TDAgMy44N3YzLjAyeiIgY2xhc3M9IkQgc3QyIi8+JiN4YTsJPHBhdGggZD0iTTE0LjY2IDMuODdsLTcuMzMgMy45djMuMDJsNy4zMy0zLjl6IiBjbGFzcz0iRCBzdDEiLz4mI3hhOzwvc3ZnPg==;" vertex="1" parent="B8T2Mf0T8lct4ZBuO3P_-35">
          <mxGeometry width="22" height="30" relative="1" as="geometry">
            <mxPoint x="19" y="15" as="offset" />
          </mxGeometry>
        </mxCell>
        <mxCell id="B8T2Mf0T8lct4ZBuO3P_-37" value="" style="strokeColor=#dddddd;shadow=1;strokeWidth=1;rounded=1;absoluteArcSize=1;arcSize=2;" vertex="1" parent="B8T2Mf0T8lct4ZBuO3P_-12">
          <mxGeometry x="478.364617769125" y="891.2373566469221" width="191.43051408931004" height="145.58938775510202" as="geometry" />
        </mxCell>
        <mxCell id="B8T2Mf0T8lct4ZBuO3P_-38" value="Kubernetes&#xa;Engine" style="editableCssRules=.*;html=1;fontColor=#999999;shape=image;verticalLabelPosition=middle;labelBackgroundColor=#ffffff;verticalAlign=middle;labelPosition=right;align=left;spacingLeft=20;part=1;points=[];imageAspect=0;image=data:image/svg+xml,PHN2ZyB4bWxucz0iaHR0cDovL3d3dy53My5vcmcvMjAwMC9zdmciIHhtbG5zOnY9Imh0dHBzOi8vdmVjdGEuaW8vbmFubyIgd2lkdGg9IjMyOS45MjU5OTcyMzE3OTM4IiBoZWlnaHQ9IjM3OC4yODQ5OTAzMTEyNzg4IiB2aWV3Qm94PSIwIDAgODcuMjkyOTk5MjY3NTc4MTIgMTAwLjA4Nzk5NzQzNjUyMzQ0Ij4mI3hhOzxzdHlsZSB0eXBlPSJ0ZXh0L2NzcyI+JiN4YTsJLnN0MHtmaWxsOiNhZWNiZmE7fSYjeGE7CS5zdDF7ZmlsbDojNjY5ZGY2O30mI3hhOwkuc3Qye2ZpbGw6IzQyODVmNDt9JiN4YTs8L3N0eWxlPiYjeGE7CTxwYXRoIGNsYXNzPSJzdDAiIGQ9Ik00My43NTEgMEwwIDI1LjQ2NXYyLjU4OCA0Ni45Mmw0My43NTIgMjUuMTE1IDQzLjU0MS0yNS4xMjFWMjUuNDczem0yLjQzOCAxMS44NTNsMzIuMTAzIDE4Ljc4MlY2OS43N0w0My43MzkgODkuNzA1IDkgNjkuNzYyVjMwLjY0MWwzMi4xOS0xOC43MzZ2MTQuMTU0TDI0LjUwMyAzNi4xNTNsMTkuMTcyIDExLjUwMiAxOC44ODYtMTEuNTU0LTE2LjM3Mi0xMC4wMjR6Ii8+JiN4YTsJPHBhdGggY2xhc3M9InN0MSIgZD0iTTIyLjAyNSA0MC40OTZsLjE2NiAxOS4xNDMtMTMuMjQ3IDcuMzN2Mi43NDJsMi42MzcgMS41MTQgMTIuNjQ4LTYuOTk5IDE2Ljk2MSAxMC42MDJWNTEuOTkzeiIvPiYjeGE7CTxwYXRoIGNsYXNzPSJzdDIiIGQ9Ik02NS4zNDQgNDAuMjZMNDYuMTg5IDUxLjk3OXYyMi44NDdsMTYuODk5LTEwLjU3NiAxMi41MzkgNi45NzQgMi42MDktMS41MDV2LTIuNzY1bC0xMi43ODQtNy4xMTJ6Ii8+JiN4YTs8L3N2Zz4=;" vertex="1" parent="B8T2Mf0T8lct4ZBuO3P_-37">
          <mxGeometry width="26" height="30" relative="1" as="geometry">
            <mxPoint x="17" y="15" as="offset" />
          </mxGeometry>
        </mxCell>
        <mxCell id="B8T2Mf0T8lct4ZBuO3P_-27" value="" style="strokeColor=#dddddd;shadow=1;strokeWidth=1;rounded=1;absoluteArcSize=1;arcSize=2;" vertex="1" parent="B8T2Mf0T8lct4ZBuO3P_-12">
          <mxGeometry x="156.08423702353383" y="339.7085714285714" width="992.950076581251" height="332.34685246540636" as="geometry" />
        </mxCell>
        <mxCell id="B8T2Mf0T8lct4ZBuO3P_-28" value="Cloud&#xa;Network" style="editableCssRules=.*;html=1;fontColor=#999999;shape=image;verticalLabelPosition=middle;labelBackgroundColor=#ffffff;verticalAlign=middle;labelPosition=right;align=left;spacingLeft=20;part=1;points=[];imageAspect=0;image=data:image/svg+xml,PHN2ZyB4bWxucz0iaHR0cDovL3d3dy53My5vcmcvMjAwMC9zdmciIHhtbG5zOnY9Imh0dHBzOi8vdmVjdGEuaW8vbmFubyIgd2lkdGg9IjIwIiBoZWlnaHQ9IjIwIiB2aWV3Qm94PSIwIDAgMjAgMjAiPiYjeGE7CTxzdHlsZSB0eXBlPSJ0ZXh0L2NzcyI+JiN4YTsJLnN0MHtmaWxsOiM0Mjg1ZjQ7fSYjeGE7CS5zdDF7ZmlsbDojNjY5ZGY2O30mI3hhOwkuc3Qye2ZpbGw6I2FlY2JmYTt9JiN4YTsJPC9zdHlsZT4mI3hhOwk8cGF0aCBjbGFzcz0ic3QxIiBkPSJNMTMuMTMgNS42M1YzLjIxTDEwIDB2Mi40MXptMy43NSA3LjVMMjAgMTBoLTIuNWwtMy4xMiAzLjEzem0tMTMuNzUgMEwwIDEwaDIuNWwzLjEzIDMuMTN6bTEwIDEuMjV2Mi40MUwxMCAyMHYtMi40MXoiIGZpbGwtcnVsZT0iZXZlbm9kZCIvPiYjeGE7CTxwYXRoIGNsYXNzPSJzdDIiIGQ9Ik02Ljg4IDUuNjNMMTAgMi40MVYwTDYuODggMy4yMXpNMTcuNSAxMEgyMGwtMy4xMi0zLjEyaC0yLjV6bS0xNSAwSDBsMy4xMy0zLjEyaDIuNXptNC4zOCA0LjM4TDEwIDE3LjU5VjIwbC0zLjEyLTMuMjF6bTAtNy41aDYuMjV2Ni4yNUg2Ljg4eiIgZmlsbC1ydWxlPSJldmVub2RkIi8+JiN4YTsJPHBhdGggY2xhc3M9InN0MSIgZD0iTTYuODggMTMuMTNsNi4yNS02LjI1djYuMjV6IiBmaWxsLXJ1bGU9ImV2ZW5vZGQiLz4mI3hhOwk8cGF0aCBjbGFzcz0ic3QwIiBkPSJNMTAgMTBsMy4xMy0zLjEydjYuMjV6IiBmaWxsLXJ1bGU9ImV2ZW5vZGQiLz4mI3hhOzwvc3ZnPg==;" vertex="1" parent="B8T2Mf0T8lct4ZBuO3P_-27">
          <mxGeometry width="30" height="28" relative="1" as="geometry">
            <mxPoint x="15" y="16" as="offset" />
          </mxGeometry>
        </mxCell>
        <mxCell id="B8T2Mf0T8lct4ZBuO3P_-30" value="Shared VPC Network" style="text;html=1;strokeColor=none;fillColor=none;align=center;verticalAlign=middle;whiteSpace=wrap;rounded=0;" vertex="1" parent="B8T2Mf0T8lct4ZBuO3P_-27">
          <mxGeometry x="394.23747015878484" y="11.497115572013259" width="125.3596395121996" height="49.286084583901776" as="geometry" />
        </mxCell>
        <mxCell id="B8T2Mf0T8lct4ZBuO3P_-39" value="Subnet" style="sketch=0;outlineConnect=0;gradientColor=none;html=1;whiteSpace=wrap;fontSize=12;fontStyle=0;shape=mxgraph.aws4.group;grIcon=mxgraph.aws4.group_subnet;strokeColor=#879196;fillColor=none;verticalAlign=top;align=left;spacingLeft=30;fontColor=#879196;dashed=0;" vertex="1" parent="B8T2Mf0T8lct4ZBuO3P_-27">
          <mxGeometry x="35.34627706577618" y="154.09699863574352" width="101.38980442658813" height="113.27778210875071" as="geometry" />
        </mxCell>
        <mxCell id="B8T2Mf0T8lct4ZBuO3P_-40" value="GCE" style="text;html=1;strokeColor=none;fillColor=none;align=center;verticalAlign=middle;whiteSpace=wrap;rounded=0;" vertex="1" parent="B8T2Mf0T8lct4ZBuO3P_-27">
          <mxGeometry x="45.02719163543544" y="204.00695770804907" width="82.04164889541859" height="53.47495614889884" as="geometry" />
        </mxCell>
        <mxCell id="B8T2Mf0T8lct4ZBuO3P_-45" value="Subnet" style="sketch=0;outlineConnect=0;gradientColor=none;html=1;whiteSpace=wrap;fontSize=12;fontStyle=0;shape=mxgraph.aws4.group;grIcon=mxgraph.aws4.group_subnet;strokeColor=#879196;fillColor=none;verticalAlign=top;align=left;spacingLeft=30;fontColor=#879196;dashed=0;" vertex="1" parent="B8T2Mf0T8lct4ZBuO3P_-27">
          <mxGeometry x="459.2281296921056" y="154.89912297797702" width="128.737020725061" height="113.27778210875071" as="geometry" />
        </mxCell>
        <mxCell id="B8T2Mf0T8lct4ZBuO3P_-46" value="GKE" style="text;html=1;strokeColor=none;fillColor=none;align=center;verticalAlign=middle;whiteSpace=wrap;rounded=0;" vertex="1" parent="B8T2Mf0T8lct4ZBuO3P_-27">
          <mxGeometry x="472.9017378413418" y="194.1140908205028" width="82.04164889541859" height="53.47495614889884" as="geometry" />
        </mxCell>
        <mxCell id="B8T2Mf0T8lct4ZBuO3P_-48" value="Subnet" style="sketch=0;outlineConnect=0;gradientColor=none;html=1;whiteSpace=wrap;fontSize=12;fontStyle=0;shape=mxgraph.aws4.group;grIcon=mxgraph.aws4.group_subnet;strokeColor=#879196;fillColor=none;verticalAlign=top;align=left;spacingLeft=30;fontColor=#879196;dashed=0;" vertex="1" parent="B8T2Mf0T8lct4ZBuO3P_-27">
          <mxGeometry x="308.81844005050476" y="154.09699863574352" width="109.38886519389145" height="113.27778210875071" as="geometry" />
        </mxCell>
        <mxCell id="B8T2Mf0T8lct4ZBuO3P_-49" value="GKE" style="text;html=1;strokeColor=none;fillColor=none;align=center;verticalAlign=middle;whiteSpace=wrap;rounded=0;" vertex="1" parent="B8T2Mf0T8lct4ZBuO3P_-27">
          <mxGeometry x="322.4920481997411" y="204.00695770804907" width="82.04164889541859" height="53.47495614889884" as="geometry" />
        </mxCell>
        <mxCell id="B8T2Mf0T8lct4ZBuO3P_-43" value="Subnet" style="sketch=0;outlineConnect=0;gradientColor=none;html=1;whiteSpace=wrap;fontSize=12;fontStyle=0;shape=mxgraph.aws4.group;grIcon=mxgraph.aws4.group_subnet;strokeColor=#879196;fillColor=none;verticalAlign=top;align=left;spacingLeft=30;fontColor=#879196;dashed=0;" vertex="1" parent="B8T2Mf0T8lct4ZBuO3P_-27">
          <mxGeometry x="172.08235855814047" y="154.09699863574352" width="115.06341257582457" height="113.27778210875071" as="geometry" />
        </mxCell>
        <mxCell id="B8T2Mf0T8lct4ZBuO3P_-44" value="GCE" style="text;html=1;strokeColor=none;fillColor=none;align=center;verticalAlign=middle;whiteSpace=wrap;rounded=0;" vertex="1" parent="B8T2Mf0T8lct4ZBuO3P_-27">
          <mxGeometry x="185.7559667073768" y="204.00695770804907" width="82.04164889541859" height="53.47495614889884" as="geometry" />
        </mxCell>
        <mxCell id="B8T2Mf0T8lct4ZBuO3P_-60" value="" style="rounded=0;whiteSpace=wrap;html=1;" vertex="1" parent="B8T2Mf0T8lct4ZBuO3P_-27">
          <mxGeometry x="641.08711807695" y="161.22699278893003" width="206.67658717570868" height="106.94991229779768" as="geometry" />
        </mxCell>
        <mxCell id="B8T2Mf0T8lct4ZBuO3P_-61" value="Private Service connection" style="text;html=1;strokeColor=none;fillColor=none;align=center;verticalAlign=middle;whiteSpace=wrap;rounded=0;" vertex="1" parent="B8T2Mf0T8lct4ZBuO3P_-27">
          <mxGeometry x="668.4343343754227" y="187.9644708633794" width="82.04164889541859" height="53.47495614889884" as="geometry" />
        </mxCell>
        <mxCell id="B8T2Mf0T8lct4ZBuO3P_-50" style="edgeStyle=orthogonalEdgeStyle;rounded=0;orthogonalLoop=1;jettySize=auto;html=1;entryX=0.139;entryY=1.2;entryDx=0;entryDy=0;entryPerimeter=0;" edge="1" parent="B8T2Mf0T8lct4ZBuO3P_-12" source="B8T2Mf0T8lct4ZBuO3P_-32" target="B8T2Mf0T8lct4ZBuO3P_-40">
          <mxGeometry relative="1" as="geometry" />
        </mxCell>
        <mxCell id="B8T2Mf0T8lct4ZBuO3P_-53" style="edgeStyle=orthogonalEdgeStyle;rounded=0;orthogonalLoop=1;jettySize=auto;html=1;" edge="1" parent="B8T2Mf0T8lct4ZBuO3P_-12" source="B8T2Mf0T8lct4ZBuO3P_-37" target="B8T2Mf0T8lct4ZBuO3P_-45">
          <mxGeometry relative="1" as="geometry" />
        </mxCell>
        <mxCell id="B8T2Mf0T8lct4ZBuO3P_-57" style="edgeStyle=orthogonalEdgeStyle;rounded=0;orthogonalLoop=1;jettySize=auto;html=1;" edge="1" parent="B8T2Mf0T8lct4ZBuO3P_-12" source="B8T2Mf0T8lct4ZBuO3P_-32" target="B8T2Mf0T8lct4ZBuO3P_-43">
          <mxGeometry relative="1" as="geometry">
            <Array as="points">
              <mxPoint x="328.16659558167436" y="757.561878776067" />
              <mxPoint x="385.59574980846736" y="757.561878776067" />
            </Array>
          </mxGeometry>
        </mxCell>
        <mxCell id="B8T2Mf0T8lct4ZBuO3P_-58" style="edgeStyle=orthogonalEdgeStyle;rounded=0;orthogonalLoop=1;jettySize=auto;html=1;" edge="1" parent="B8T2Mf0T8lct4ZBuO3P_-12" source="B8T2Mf0T8lct4ZBuO3P_-17" target="B8T2Mf0T8lct4ZBuO3P_-48">
          <mxGeometry relative="1" as="geometry">
            <Array as="points">
              <mxPoint x="574.2915422679301" y="743.3018904696941" />
              <mxPoint x="519.5971096709844" y="743.3018904696941" />
            </Array>
          </mxGeometry>
        </mxCell>
        <mxCell id="B8T2Mf0T8lct4ZBuO3P_-63" style="edgeStyle=orthogonalEdgeStyle;rounded=0;orthogonalLoop=1;jettySize=auto;html=1;entryX=0.5;entryY=1;entryDx=0;entryDy=0;" edge="1" parent="B8T2Mf0T8lct4ZBuO3P_-12" source="B8T2Mf0T8lct4ZBuO3P_-35" target="B8T2Mf0T8lct4ZBuO3P_-60">
          <mxGeometry relative="1" as="geometry" />
        </mxCell>
        <mxCell id="B8T2Mf0T8lct4ZBuO3P_-65" value="" style="rounded=0;whiteSpace=wrap;html=1;fillColor=#f8cecc;strokeColor=#b85450;" vertex="1" parent="B8T2Mf0T8lct4ZBuO3P_-12">
          <mxGeometry x="1232.2205934047852" y="218.37389592671997" width="215.3395211775353" height="298.5506801793023" as="geometry" />
        </mxCell>
        <mxCell id="B8T2Mf0T8lct4ZBuO3P_-66" value="&lt;font style=&quot;font-size: 12px;&quot;&gt;&lt;b style=&quot;&quot;&gt;Restricted APIs&lt;/b&gt;&lt;/font&gt;" style="text;html=1;strokeColor=none;fillColor=none;align=center;verticalAlign=middle;whiteSpace=wrap;rounded=0;" vertex="1" parent="B8T2Mf0T8lct4ZBuO3P_-12">
          <mxGeometry x="1268.1105136010412" y="217.51829662833757" width="71.77984039251177" height="53.47495614889885" as="geometry" />
        </mxCell>
        <mxCell id="B8T2Mf0T8lct4ZBuO3P_-67" value="&lt;div style=&quot;line-height: 100%;&quot;&gt;&lt;div style=&quot;line-height: 100%;&quot;&gt;&amp;nbsp; &amp;nbsp; - container.googleapis.com&lt;/div&gt;&lt;div style=&quot;line-height: 100%;&quot;&gt;&amp;nbsp; &amp;nbsp; - dns.googleapis.com&lt;/div&gt;&lt;div style=&quot;line-height: 100%;&quot;&gt;&amp;nbsp; &amp;nbsp; - compute.googleapis.com&lt;/div&gt;&lt;div style=&quot;line-height: 100%;&quot;&gt;&amp;nbsp; &amp;nbsp; - iam.googleapis.com&lt;/div&gt;&lt;div style=&quot;line-height: 100%;&quot;&gt;&amp;nbsp; &amp;nbsp; - logging.googleapis.com&lt;/div&gt;&lt;div style=&quot;line-height: 100%;&quot;&gt;&amp;nbsp; &amp;nbsp; - monitoring.googleapis.com&lt;/div&gt;&lt;div style=&quot;line-height: 100%;&quot;&gt;&amp;nbsp; &amp;nbsp; - sqladmin.googleapis.com&lt;/div&gt;&lt;div style=&quot;line-height: 100%;&quot;&gt;&amp;nbsp; &amp;nbsp; &amp;nbsp;- cloudfunctions.googleapis.com&lt;/div&gt;&lt;div style=&quot;line-height: 100%;&quot;&gt;&amp;nbsp; &amp;nbsp; - cloudbuild.googleapis.com&lt;/div&gt;&lt;/div&gt;" style="text;html=1;strokeColor=none;fillColor=none;align=center;verticalAlign=middle;whiteSpace=wrap;rounded=0;" vertex="1" parent="B8T2Mf0T8lct4ZBuO3P_-12">
          <mxGeometry x="1244.1839001368705" y="285.1997661274605" width="179.44960098127942" height="196.07483921262912" as="geometry" />
        </mxCell>
        <mxCell id="B8T2Mf0T8lct4ZBuO3P_-77" style="edgeStyle=orthogonalEdgeStyle;rounded=0;orthogonalLoop=1;jettySize=auto;html=1;entryX=0.997;entryY=0.575;entryDx=0;entryDy=0;entryPerimeter=0;exitX=1;exitY=0.5;exitDx=0;exitDy=0;" edge="1" parent="B8T2Mf0T8lct4ZBuO3P_-12" source="B8T2Mf0T8lct4ZBuO3P_-68" target="B8T2Mf0T8lct4ZBuO3P_-65">
          <mxGeometry relative="1" as="geometry" />
        </mxCell>
        <mxCell id="B8T2Mf0T8lct4ZBuO3P_-79" style="edgeStyle=orthogonalEdgeStyle;rounded=0;orthogonalLoop=1;jettySize=auto;html=1;entryX=0.605;entryY=0;entryDx=0;entryDy=0;entryPerimeter=0;" edge="1" parent="B8T2Mf0T8lct4ZBuO3P_-12" source="B8T2Mf0T8lct4ZBuO3P_-68" target="B8T2Mf0T8lct4ZBuO3P_-71">
          <mxGeometry relative="1" as="geometry" />
        </mxCell>
        <mxCell id="B8T2Mf0T8lct4ZBuO3P_-68" value="" style="rounded=0;whiteSpace=wrap;html=1;fillColor=#d5e8d4;strokeColor=#82b366;" vertex="1" parent="B8T2Mf0T8lct4ZBuO3P_-12">
          <mxGeometry x="1238.2" y="529.1871300075092" width="203.38" height="198.6647424009925" as="geometry" />
        </mxCell>
        <mxCell id="B8T2Mf0T8lct4ZBuO3P_-69" value="&lt;font style=&quot;font-size: 12px;&quot;&gt;&lt;b&gt;Ingress rules&lt;/b&gt;&lt;/font&gt;" style="text;html=1;strokeColor=none;fillColor=none;align=center;verticalAlign=middle;whiteSpace=wrap;rounded=0;" vertex="1" parent="B8T2Mf0T8lct4ZBuO3P_-12">
          <mxGeometry x="1256.147206868956" y="547.2805262132138" width="71.77984039251177" height="53.47495614889885" as="geometry" />
        </mxCell>
        <mxCell id="B8T2Mf0T8lct4ZBuO3P_-70" value="&lt;div style=&quot;font-size: 11px; line-height: 90%;&quot;&gt;&lt;font style=&quot;font-size: 11px;&quot;&gt;Ingress Rule 1&lt;/font&gt;&lt;/div&gt;&lt;div style=&quot;font-size: 11px; line-height: 90%;&quot;&gt;&lt;font style=&quot;font-size: 11px;&quot;&gt;From:&lt;/font&gt;&lt;/div&gt;&lt;div style=&quot;font-size: 11px; line-height: 90%;&quot;&gt;&lt;font style=&quot;font-size: 11px;&quot;&gt;Identities:&lt;/font&gt;&lt;/div&gt;&lt;div style=&quot;font-size: 11px; line-height: 90%;&quot;&gt;&lt;font style=&quot;font-size: 11px;&quot;&gt;harinderjit.singh@xxxx.com&lt;/font&gt;&lt;/div&gt;&lt;div style=&quot;font-size: 11px; line-height: 90%;&quot;&gt;&lt;font style=&quot;font-size: 11px;&quot;&gt;Source &amp;gt; Access levels = terraform_members&lt;/font&gt;&lt;/div&gt;&lt;div style=&quot;font-size: 11px; line-height: 90%;&quot;&gt;&lt;font style=&quot;font-size: 11px;&quot;&gt;To:&lt;/font&gt;&lt;/div&gt;&lt;div style=&quot;font-size: 11px; line-height: 90%;&quot;&gt;&lt;font style=&quot;font-size: 11px;&quot;&gt;Projects = All projects&lt;/font&gt;&lt;/div&gt;" style="text;html=1;strokeColor=none;fillColor=none;align=center;verticalAlign=middle;whiteSpace=wrap;rounded=0;" vertex="1" parent="B8T2Mf0T8lct4ZBuO3P_-12">
          <mxGeometry x="1256.15" y="561.88" width="140" height="168.12" as="geometry" />
        </mxCell>
        <mxCell id="B8T2Mf0T8lct4ZBuO3P_-71" value="" style="rounded=0;whiteSpace=wrap;html=1;fillColor=#b0e3e6;strokeColor=#0e8088;" vertex="1" parent="B8T2Mf0T8lct4ZBuO3P_-12">
          <mxGeometry x="1240.44" y="775.38" width="209.56" height="254.8" as="geometry" />
        </mxCell>
        <mxCell id="B8T2Mf0T8lct4ZBuO3P_-72" value="&lt;b&gt;Access Level&lt;/b&gt;" style="text;html=1;strokeColor=none;fillColor=none;align=center;verticalAlign=middle;whiteSpace=wrap;rounded=0;" vertex="1" parent="B8T2Mf0T8lct4ZBuO3P_-12">
          <mxGeometry x="1300.4441684285682" y="788.9839446777717" width="95.70645385668236" height="53.47495614889885" as="geometry" />
        </mxCell>
        <mxCell id="B8T2Mf0T8lct4ZBuO3P_-73" value="&lt;div style=&quot;font-size: 11px;&quot;&gt;&lt;font style=&quot;font-size: 11px;&quot;&gt;Ingress policy&lt;/font&gt;&lt;/div&gt;&lt;div style=&quot;font-size: 11px;&quot;&gt;&lt;font style=&quot;font-size: 11px;&quot;&gt;Include&amp;nbsp; all the following attributes&lt;/font&gt;&lt;/div&gt;&lt;div style=&quot;font-size: 11px;&quot;&gt;&lt;font style=&quot;font-size: 11px;&quot;&gt;IP Subnetwork matches any of&amp;nbsp; [166.48.X.X/32]&lt;/font&gt;&lt;/div&gt;&lt;div style=&quot;font-size: 11px;&quot;&gt;&lt;font style=&quot;font-size: 11px;&quot;&gt;Location matches any of&amp;nbsp; [US (United States) and CA (Canada)]&lt;/font&gt;&lt;/div&gt;&lt;div style=&quot;font-size: 11px;&quot;&gt;&lt;font style=&quot;font-size: 11px;&quot;&gt;Principal matches any of&amp;nbsp; [harinderjit.singh@xxx.com]&lt;/font&gt;&lt;/div&gt;" style="text;html=1;strokeColor=none;fillColor=none;align=center;verticalAlign=middle;whiteSpace=wrap;rounded=0;" vertex="1" parent="B8T2Mf0T8lct4ZBuO3P_-12">
          <mxGeometry x="1244.18" y="844.1663217865421" width="217.33" height="117.22297022429723" as="geometry" />
        </mxCell>
        <mxCell id="B8T2Mf0T8lct4ZBuO3P_-87" style="edgeStyle=orthogonalEdgeStyle;rounded=0;orthogonalLoop=1;jettySize=auto;html=1;entryX=1;entryY=0.75;entryDx=0;entryDy=0;" edge="1" parent="B8T2Mf0T8lct4ZBuO3P_-12" source="B8T2Mf0T8lct4ZBuO3P_-85" target="B8T2Mf0T8lct4ZBuO3P_-68">
          <mxGeometry relative="1" as="geometry" />
        </mxCell>
        <mxCell id="B8T2Mf0T8lct4ZBuO3P_-85" value="" style="ellipse;whiteSpace=wrap;html=1;" vertex="1" parent="B8T2Mf0T8lct4ZBuO3P_-12">
          <mxGeometry x="1461.51" y="638.98" width="87.99" height="80" as="geometry" />
        </mxCell>
        <mxCell id="B8T2Mf0T8lct4ZBuO3P_-86" value="Access Policy Evaluation" style="text;html=1;strokeColor=none;fillColor=none;align=center;verticalAlign=middle;whiteSpace=wrap;rounded=0;" vertex="1" parent="B8T2Mf0T8lct4ZBuO3P_-12">
          <mxGeometry x="1475.99" y="658.98" width="60" height="30" as="geometry" />
        </mxCell>
        <mxCell id="B8T2Mf0T8lct4ZBuO3P_-83" style="edgeStyle=orthogonalEdgeStyle;rounded=0;orthogonalLoop=1;jettySize=auto;html=1;entryX=1;entryY=0.5;entryDx=0;entryDy=0;" edge="1" parent="1" source="B8T2Mf0T8lct4ZBuO3P_-80" target="B8T2Mf0T8lct4ZBuO3P_-85">
          <mxGeometry relative="1" as="geometry" />
        </mxCell>
        <mxCell id="B8T2Mf0T8lct4ZBuO3P_-80" value="" style="image;points=[];aspect=fixed;html=1;align=center;shadow=0;dashed=0;image=img/lib/allied_telesis/computer_and_terminals/Laptop.svg;" vertex="1" parent="1">
          <mxGeometry x="3200" y="-430" width="42" height="42.599999999999994" as="geometry" />
        </mxCell>
        <mxCell id="B8T2Mf0T8lct4ZBuO3P_-81" value="Some Service account key file&lt;br&gt;IP not equals 166.48.X.X&lt;br&gt;API:&amp;nbsp; compute.googleapis.com" style="text;html=1;strokeColor=none;fillColor=none;align=center;verticalAlign=middle;whiteSpace=wrap;rounded=0;" vertex="1" parent="1">
          <mxGeometry x="3090" y="-500" width="190" height="70" as="geometry" />
        </mxCell>
        <mxCell id="B8T2Mf0T8lct4ZBuO3P_-84" value="" style="shape=image;html=1;verticalAlign=top;verticalLabelPosition=bottom;labelBackgroundColor=#ffffff;imageAspect=0;aspect=fixed;image=https://cdn2.iconfinder.com/data/icons/circle-icons-1/64/denied-128.png" vertex="1" parent="1">
          <mxGeometry x="2920" y="-20" width="34" height="34" as="geometry" />
        </mxCell>
        <mxCell id="B8T2Mf0T8lct4ZBuO3P_-88" style="edgeStyle=orthogonalEdgeStyle;rounded=0;orthogonalLoop=1;jettySize=auto;html=1;entryX=0.5;entryY=1;entryDx=0;entryDy=0;" edge="1" parent="1" source="B8T2Mf0T8lct4ZBuO3P_-89" target="B8T2Mf0T8lct4ZBuO3P_-85">
          <mxGeometry relative="1" as="geometry">
            <mxPoint x="2870" y="530" as="targetPoint" />
          </mxGeometry>
        </mxCell>
        <mxCell id="B8T2Mf0T8lct4ZBuO3P_-89" value="" style="image;points=[];aspect=fixed;html=1;align=center;shadow=0;dashed=0;image=img/lib/allied_telesis/computer_and_terminals/Laptop.svg;" vertex="1" parent="1">
          <mxGeometry x="3238" y="80" width="42" height="42.599999999999994" as="geometry" />
        </mxCell>
        <mxCell id="B8T2Mf0T8lct4ZBuO3P_-91" value="IP: 166.48.X.X&lt;br&gt;Identity: harinderjit.singh@xxx.com&lt;br&gt;Location: canada&lt;br&gt;API:&amp;nbsp; compute.googleapis.com" style="text;html=1;strokeColor=none;fillColor=none;align=center;verticalAlign=middle;whiteSpace=wrap;rounded=0;" vertex="1" parent="1">
          <mxGeometry x="3130" y="100" width="206" height="110" as="geometry" />
        </mxCell>
      </root>
    </mxGraphModel>
  </diagram>
</mxfile>
